<svg xmlns="http://www.w3.org/2000/svg" xmlns:xlink="http://www.w3.org/1999/xlink" width="500" zoomAndPan="magnify" viewBox="0 0 375 374.999991" height="500" preserveAspectRatio="xMidYMid meet" version="1.0"><defs><g/><clipPath id="id1"><path d="M 104.097656 56.601562 L 270.597656 56.601562 L 270.597656 224.601562 L 104.097656 224.601562 Z M 104.097656 56.601562 " clip-rule="nonzero"/></clipPath></defs><g clip-path="url(#id1)"><path fill="#ed155d" d="M 270.597656 139.960938 C 270.597656 138.425781 270.554688 136.890625 270.46875 135.355469 C 270.382812 133.820312 270.253906 132.289062 270.082031 130.761719 C 269.914062 129.234375 269.703125 127.710938 269.445312 126.195312 C 269.191406 124.679688 268.894531 123.171875 268.558594 121.671875 C 268.222656 120.175781 267.84375 118.683594 267.421875 117.207031 C 267 115.726562 266.542969 114.261719 266.039062 112.808594 C 265.539062 111.355469 265 109.917969 264.417969 108.496094 C 263.835938 107.074219 263.21875 105.667969 262.558594 104.277344 C 261.902344 102.890625 261.207031 101.519531 260.472656 100.171875 C 259.738281 98.820312 258.964844 97.492188 258.160156 96.183594 C 257.351562 94.878906 256.507812 93.59375 255.628906 92.332031 C 254.753906 91.070312 253.839844 89.835938 252.894531 88.625 C 251.945312 87.417969 250.96875 86.234375 249.953125 85.078125 C 248.941406 83.921875 247.898438 82.792969 246.824219 81.695312 C 245.75 80.597656 244.648438 79.53125 243.511719 78.492188 C 242.378906 77.457031 241.21875 76.453125 240.03125 75.480469 C 238.839844 74.507812 237.625 73.566406 236.386719 72.664062 C 235.144531 71.757812 233.878906 70.886719 232.589844 70.050781 C 231.300781 69.214844 229.992188 68.417969 228.65625 67.652344 C 227.324219 66.890625 225.972656 66.167969 224.597656 65.480469 C 223.226562 64.789062 221.832031 64.140625 220.425781 63.53125 C 219.015625 62.921875 217.589844 62.347656 216.148438 61.816406 C 214.710938 61.285156 213.253906 60.792969 211.789062 60.34375 C 210.320312 59.890625 208.839844 59.480469 207.351562 59.113281 C 205.859375 58.742188 204.359375 58.414062 202.851562 58.128906 C 201.34375 57.84375 199.828125 57.597656 198.304688 57.394531 C 196.78125 57.195312 195.257812 57.035156 193.726562 56.914062 C 192.195312 56.796875 190.660156 56.722656 189.125 56.691406 C 187.589844 56.65625 186.054688 56.667969 184.519531 56.71875 C 182.988281 56.769531 181.453125 56.867188 179.925781 57.003906 C 178.394531 57.140625 176.871094 57.320312 175.351562 57.539062 C 173.832031 57.761719 172.320312 58.027344 170.816406 58.332031 C 169.3125 58.636719 167.816406 58.984375 166.328125 59.371094 C 164.84375 59.757812 163.371094 60.1875 161.90625 60.65625 C 160.445312 61.128906 158.996094 61.636719 157.5625 62.1875 C 156.128906 62.738281 154.710938 63.324219 153.3125 63.953125 C 151.910156 64.582031 150.527344 65.25 149.164062 65.953125 C 147.796875 66.660156 146.453125 67.402344 145.132812 68.179688 C 143.808594 68.960938 142.507812 69.777344 141.226562 70.628906 C 139.949219 71.480469 138.695312 72.367188 137.464844 73.285156 C 136.238281 74.207031 135.035156 75.160156 133.859375 76.148438 C 132.679688 77.136719 131.53125 78.15625 130.414062 79.207031 C 129.292969 80.257812 128.203125 81.339844 127.140625 82.453125 C 126.082031 83.5625 125.050781 84.703125 124.054688 85.871094 C 123.058594 87.039062 122.09375 88.234375 121.160156 89.457031 C 120.230469 90.679688 119.332031 91.925781 118.472656 93.199219 C 117.609375 94.46875 116.78125 95.765625 115.992188 97.082031 C 115.199219 98.398438 114.445312 99.738281 113.730469 101.097656 C 113.011719 102.457031 112.332031 103.835938 111.691406 105.230469 C 111.050781 106.628906 110.449219 108.042969 109.886719 109.472656 C 109.324219 110.902344 108.804688 112.347656 108.320312 113.804688 C 107.835938 115.265625 107.394531 116.734375 106.992188 118.21875 C 106.59375 119.703125 106.230469 121.195312 105.914062 122.699219 C 105.59375 124.203125 105.316406 125.714844 105.082031 127.234375 C 104.847656 128.753906 104.652344 130.277344 104.503906 131.804688 C 104.351562 133.335938 104.242188 134.867188 104.175781 136.402344 C 104.109375 137.941406 104.085938 139.476562 104.105469 141.011719 C 104.125 142.550781 104.183594 144.085938 104.289062 145.617188 C 104.390625 147.152344 104.539062 148.679688 104.726562 150.207031 C 104.914062 151.730469 105.144531 153.25 105.414062 154.765625 C 105.6875 156.277344 106 157.78125 106.355469 159.277344 C 106.710938 160.769531 107.109375 162.253906 107.546875 163.730469 C 107.980469 165.203125 108.460938 166.664062 108.976562 168.109375 C 109.496094 169.558594 110.054688 170.988281 110.648438 172.40625 C 111.410156 174.195312 112.226562 175.949219 113.09375 177.671875 L 111.980469 216.1875 C 111.976562 216.441406 111.996094 216.695312 112.042969 216.949219 C 112.089844 217.199219 112.164062 217.445312 112.261719 217.679688 C 112.359375 217.917969 112.484375 218.140625 112.628906 218.351562 C 112.777344 218.5625 112.945312 218.753906 113.128906 218.929688 C 113.316406 219.101562 113.523438 219.257812 113.742188 219.386719 C 113.960938 219.519531 114.191406 219.625 114.433594 219.707031 C 114.679688 219.789062 114.925781 219.84375 115.179688 219.875 C 115.433594 219.902344 115.691406 219.90625 115.945312 219.878906 L 153.492188 216.105469 C 153.972656 216.316406 154.453125 216.53125 154.9375 216.734375 C 157.949219 218.011719 161.023438 219.101562 164.164062 220.015625 C 167.304688 220.925781 170.488281 221.648438 173.710938 222.1875 C 176.9375 222.722656 180.183594 223.066406 183.449219 223.21875 C 186.714844 223.375 189.976562 223.335938 193.238281 223.101562 C 196.5 222.871094 199.738281 222.449219 202.949219 221.835938 C 206.160156 221.222656 209.324219 220.421875 212.441406 219.433594 C 215.558594 218.449219 218.605469 217.28125 221.585938 215.9375 C 224.566406 214.589844 227.457031 213.074219 230.257812 211.386719 C 230.644531 212.355469 231.097656 213.285156 231.621094 214.1875 C 232.144531 215.085938 232.734375 215.941406 233.382812 216.75 C 234.035156 217.5625 234.742188 218.320312 235.507812 219.027344 C 236.273438 219.734375 237.085938 220.378906 237.945312 220.960938 C 238.808594 221.546875 239.707031 222.0625 240.644531 222.511719 C 241.582031 222.964844 242.550781 223.339844 243.542969 223.644531 C 244.539062 223.953125 245.550781 224.183594 246.578125 224.335938 C 247.609375 224.492188 248.640625 224.566406 249.683594 224.566406 C 250.367188 224.566406 251.050781 224.535156 251.730469 224.46875 C 252.414062 224.398438 253.089844 224.300781 253.761719 224.167969 C 254.433594 224.03125 255.097656 223.867188 255.75 223.667969 C 256.40625 223.46875 257.050781 223.238281 257.683594 222.976562 C 258.316406 222.714844 258.933594 222.421875 259.539062 222.097656 C 260.140625 221.773438 260.726562 221.421875 261.296875 221.042969 C 261.867188 220.660156 262.414062 220.253906 262.945312 219.816406 C 263.472656 219.382812 263.980469 218.921875 264.464844 218.4375 C 264.949219 217.953125 265.410156 217.449219 265.84375 216.917969 C 266.277344 216.386719 266.683594 215.839844 267.066406 215.269531 C 267.445312 214.699219 267.796875 214.109375 268.121094 213.507812 C 268.441406 212.902344 268.734375 212.285156 268.996094 211.648438 C 269.257812 211.015625 269.488281 210.371094 269.6875 209.71875 C 269.886719 209.0625 270.050781 208.398438 270.1875 207.726562 C 270.320312 207.050781 270.421875 206.375 270.488281 205.695312 C 270.554688 205.011719 270.585938 204.328125 270.585938 203.640625 L 270.585938 141.667969 C 270.585938 141.097656 270.597656 140.53125 270.597656 139.960938 Z M 187.347656 181.519531 C 164.457031 181.519531 145.832031 162.878906 145.832031 139.960938 C 145.832031 117.046875 164.457031 98.402344 187.347656 98.402344 C 210.242188 98.402344 228.867188 117.046875 228.867188 139.960938 C 228.867188 162.878906 210.242188 181.519531 187.347656 181.519531 Z M 187.347656 181.519531 " fill-opacity="1" fill-rule="nonzero"/></g><g fill="#3ab1fd" fill-opacity="1"><g transform="translate(61.393403, 278.456231)"><g><path d="M 18.496094 -40.765625 C 9.914062 -40.765625 4.871094 -34.15625 3.539062 -13.628906 C 3.363281 -10.960938 3.304688 -8.117188 3.246094 -4.988281 C 3.1875 -1.738281 4.929688 0 8.058594 0 C 11.191406 0 12.929688 -1.738281 12.929688 -4.929688 C 12.929688 -6.378906 12.988281 -7.710938 12.988281 -8.988281 L 23.253906 -8.988281 C 23.3125 -7.539062 23.3125 -6.089844 23.3125 -4.523438 C 23.3125 -1.566406 25.050781 0 28.238281 0 L 29.109375 0 C 32.300781 0 34.039062 -1.855469 33.980469 -5.21875 C 33.574219 -32.355469 28.585938 -40.765625 18.496094 -40.765625 Z M 13.105469 -15.886719 C 13.511719 -28.878906 14.730469 -32.589844 17.6875 -32.589844 C 20.585938 -32.589844 22.324219 -28.878906 23.019531 -15.886719 Z M 13.105469 -15.886719 "/></g></g></g><g fill="#3ab1fd" fill-opacity="1"><g transform="translate(98.618493, 278.456231)"><g><path d="M 20.238281 -32.53125 C 16.933594 -32.53125 14.613281 -31.140625 12.988281 -29.457031 L 12.988281 -30.792969 C 12.988281 -31.660156 11.25 -32.125 8.058594 -32.125 L 7.945312 -32.125 C 4.753906 -32.125 3.015625 -30.386719 3.074219 -27.195312 C 3.132812 -23.484375 3.1875 -19.890625 3.1875 -16.0625 C 3.1875 -8.175781 3.074219 -0.8125 3.015625 6.957031 C 3.015625 10.148438 4.753906 11.886719 7.945312 11.886719 L 8.058594 11.886719 C 11.25 11.886719 12.988281 10.148438 12.929688 6.957031 C 12.875 3.246094 12.699219 -0.40625 12.234375 -4.058594 L 12.582031 -4.695312 C 14.03125 -1.507812 16.816406 0.636719 20.410156 0.636719 C 27.253906 0.636719 32.761719 -5.101562 32.761719 -16.585938 C 32.761719 -28.761719 27.253906 -32.53125 20.238281 -32.53125 Z M 17.742188 -7.191406 C 15.191406 -7.191406 13.046875 -8.351562 12.875 -12.121094 L 12.816406 -12.0625 C 12.816406 -13.277344 12.816406 -14.496094 12.875 -15.714844 C 12.929688 -20.816406 12.875 -21.398438 12.816406 -22.09375 C 13.976562 -23.601562 15.308594 -24.355469 17.511719 -24.355469 C 21.222656 -24.355469 23.367188 -22.152344 23.367188 -16.003906 C 23.367188 -8.871094 20.757812 -7.191406 17.742188 -7.191406 Z M 17.742188 -7.191406 "/></g></g></g><g fill="#3ab1fd" fill-opacity="1"><g transform="translate(133.466269, 278.456231)"><g><path d="M 20.238281 -32.53125 C 16.933594 -32.53125 14.613281 -31.140625 12.988281 -29.457031 L 12.988281 -30.792969 C 12.988281 -31.660156 11.25 -32.125 8.058594 -32.125 L 7.945312 -32.125 C 4.753906 -32.125 3.015625 -30.386719 3.074219 -27.195312 C 3.132812 -23.484375 3.1875 -19.890625 3.1875 -16.0625 C 3.1875 -8.175781 3.074219 -0.8125 3.015625 6.957031 C 3.015625 10.148438 4.753906 11.886719 7.945312 11.886719 L 8.058594 11.886719 C 11.25 11.886719 12.988281 10.148438 12.929688 6.957031 C 12.875 3.246094 12.699219 -0.40625 12.234375 -4.058594 L 12.582031 -4.695312 C 14.03125 -1.507812 16.816406 0.636719 20.410156 0.636719 C 27.253906 0.636719 32.761719 -5.101562 32.761719 -16.585938 C 32.761719 -28.761719 27.253906 -32.53125 20.238281 -32.53125 Z M 17.742188 -7.191406 C 15.191406 -7.191406 13.046875 -8.351562 12.875 -12.121094 L 12.816406 -12.0625 C 12.816406 -13.277344 12.816406 -14.496094 12.875 -15.714844 C 12.929688 -20.816406 12.875 -21.398438 12.816406 -22.09375 C 13.976562 -23.601562 15.308594 -24.355469 17.511719 -24.355469 C 21.222656 -24.355469 23.367188 -22.152344 23.367188 -16.003906 C 23.367188 -8.871094 20.757812 -7.191406 17.742188 -7.191406 Z M 17.742188 -7.191406 "/></g></g></g><g fill="#3ab1fd" fill-opacity="1"><g transform="translate(168.314045, 278.456231)"><g/></g></g><g fill="#3ab1fd" fill-opacity="1"><g transform="translate(182.809791, 278.456231)"><g><path d="M 19.542969 0.578125 C 27.832031 0.578125 33.050781 -2.667969 34.210938 -9.742188 C 34.792969 -13.105469 32.648438 -14.960938 29.457031 -14.960938 L 29.398438 -14.960938 C 26.382812 -14.960938 25.167969 -13.335938 24.179688 -10.265625 C 23.484375 -8.175781 22.09375 -7.421875 19.601562 -7.421875 C 16.292969 -7.421875 13.976562 -9.859375 13.976562 -20.121094 C 13.976562 -29.574219 15.597656 -32.9375 19.601562 -32.9375 C 22.558594 -32.9375 23.949219 -31.777344 24.414062 -28.761719 C 24.875 -25.457031 26.09375 -23.660156 29.285156 -23.660156 L 29.632812 -23.660156 C 32.761719 -23.660156 34.910156 -25.339844 34.617188 -28.585938 C 33.921875 -36.472656 28.53125 -40.765625 19.949219 -40.765625 C 8.523438 -40.765625 2.839844 -33.863281 2.839844 -20.121094 C 2.839844 -6.320312 8.003906 0.578125 19.542969 0.578125 Z M 19.542969 0.578125 "/></g></g></g><g fill="#3ab1fd" fill-opacity="1"><g transform="translate(219.628995, 278.456231)"><g><path d="M 31.949219 -4.988281 C 31.894531 -10.207031 31.777344 -15.078125 31.894531 -19.136719 C 32.125 -28.703125 29.050781 -32.589844 22.964844 -32.589844 C 18.496094 -32.589844 15.078125 -30.675781 12.875 -26.617188 L 12.816406 -26.730469 C 13.222656 -29.109375 13.222656 -31.546875 13.222656 -34.210938 C 13.222656 -35.140625 13.222656 -36.53125 13.222656 -38.039062 C 13.222656 -40.589844 11.539062 -41.984375 8.351562 -41.984375 L 7.945312 -41.984375 C 4.753906 -41.984375 3.015625 -40.242188 3.015625 -37.054688 C 3.074219 -31.777344 3.1875 -26.847656 3.1875 -21.628906 C 3.1875 -15.886719 3.074219 -10.496094 3.015625 -4.929688 C 3.015625 -1.738281 4.753906 0 7.945312 0 L 8.351562 0 C 11.539062 0 13.277344 -1.738281 13.277344 -4.929688 C 13.222656 -10.207031 13.105469 -15.367188 13.222656 -20.757812 C 14.148438 -22.90625 15.832031 -24.179688 18.09375 -24.238281 C 20.703125 -24.296875 22.035156 -23.019531 22.035156 -19.25 C 22.035156 -15.25 21.976562 -10.320312 21.917969 -4.988281 C 21.917969 -1.738281 23.660156 0 26.847656 0 L 27.023438 0 C 30.210938 0 31.949219 -1.738281 31.949219 -4.988281 Z M 31.949219 -4.988281 "/></g></g></g><g fill="#3ab1fd" fill-opacity="1"><g transform="translate(254.940643, 278.456231)"><g><path d="M 12.121094 0.578125 C 15.367188 0.578125 18.496094 -0.523438 20.816406 -2.785156 C 20.875 -2.320312 20.933594 -1.855469 21.105469 -1.390625 C 21.339844 -0.464844 22.90625 0 25.863281 0 L 26.382812 0 C 29.515625 0 31.140625 -1.796875 30.964844 -5.042969 C 30.792969 -8.988281 30.792969 -14.03125 30.792969 -20.992188 C 30.792969 -28.761719 26.5 -32.589844 17.859375 -32.589844 C 9.394531 -32.589844 4.929688 -30.328125 3.59375 -25.804688 C 2.667969 -22.613281 5.042969 -20.757812 8.292969 -20.757812 L 8.871094 -20.757812 C 11.714844 -20.757812 11.945312 -22.324219 13.628906 -24.875 C 14.324219 -25.921875 15.597656 -26.328125 17.105469 -26.328125 C 19.65625 -26.328125 20.816406 -25.050781 20.816406 -20.816406 L 20.816406 -18.847656 C 7.769531 -19.195312 1.796875 -15.425781 1.796875 -8.175781 C 1.796875 -2.085938 6.378906 0.578125 12.121094 0.578125 Z M 15.191406 -5.972656 C 12.46875 -5.972656 11.015625 -7.539062 11.015625 -9.742188 C 11.015625 -13.453125 15.65625 -14.089844 20.933594 -14.207031 L 20.933594 -8.988281 C 19.601562 -7.074219 17.800781 -5.972656 15.191406 -5.972656 Z M 15.191406 -5.972656 "/></g></g></g><g fill="#3ab1fd" fill-opacity="1"><g transform="translate(288.686749, 278.456231)"><g><path d="M 18.382812 -7.015625 C 15.597656 -6.957031 14.378906 -8.523438 14.378906 -11.886719 C 14.378906 -14.902344 14.324219 -18.324219 14.4375 -21.628906 C 14.4375 -22.671875 14.496094 -23.660156 14.496094 -24.703125 L 19.019531 -24.761719 C 21.917969 -24.761719 23.484375 -26.035156 23.484375 -28.414062 C 23.484375 -30.792969 21.746094 -32.066406 18.554688 -32.066406 L 14.496094 -32.066406 L 14.496094 -37.167969 C 14.496094 -40.242188 12.351562 -41.578125 9.105469 -40.53125 C 6.378906 -39.664062 5.042969 -37.867188 5.042969 -34.964844 C 5.042969 -33.980469 5.101562 -33.050781 5.101562 -32.066406 L 2.667969 -32.066406 C 1.101562 -32.066406 0.175781 -30.734375 0.175781 -28.355469 C 0.175781 -25.976562 1.914062 -24.644531 5.101562 -24.644531 L 5.160156 -24.644531 L 5.160156 -21.628906 C 5.160156 -17.917969 5.160156 -14.148438 5.101562 -10.726562 C 4.929688 -2.320312 9.566406 0.695312 16.757812 0.695312 C 18.09375 0.695312 19.425781 0.578125 20.585938 0.347656 C 23.136719 -0.175781 24.121094 -2.085938 23.890625 -4.582031 C 23.660156 -6.957031 21.746094 -7.132812 18.382812 -7.015625 Z M 18.382812 -7.015625 "/></g></g></g><g fill="#ed155d" fill-opacity="1"><g transform="translate(104.90575, 305.978327)"><g><path d="M 7.765625 -4.273438 C 7.765625 -6.636719 6.53125 -8.300781 4.304688 -8.300781 C 2.089844 -8.300781 0.457031 -6.636719 0.457031 -4.011719 C 0.457031 -1.160156 2.03125 0.214844 4.136719 0.214844 C 5.796875 0.214844 7.339844 -0.65625 7.660156 -2.609375 L 6.285156 -2.609375 C 6.101562 -1.449219 5.25 -0.792969 4.195312 -0.792969 C 3.003906 -0.792969 2 -1.511719 1.875 -3.648438 L 7.734375 -3.648438 C 7.765625 -3.9375 7.765625 -4.148438 7.765625 -4.273438 Z M 4.273438 -7.292969 C 5.601562 -7.292969 6.316406 -6.332031 6.4375 -4.652344 L 1.890625 -4.652344 C 2.042969 -6.378906 2.992188 -7.292969 4.273438 -7.292969 Z M 4.273438 -7.292969 "/></g></g></g><g fill="#ed155d" fill-opacity="1"><g transform="translate(119.752172, 305.978327)"><g><path d="M 4.304688 -4.121094 L 7.140625 -8.085938 L 5.628906 -8.085938 L 3.601562 -4.957031 L 1.570312 -8.085938 L 0.015625 -8.085938 L 2.808594 -4.089844 L -0.0898438 0 L 1.417969 0 L 3.523438 -3.25 L 5.644531 0 L 7.171875 0 Z M 4.304688 -4.121094 "/></g></g></g><g fill="#ed155d" fill-opacity="1"><g transform="translate(133.576463, 305.978327)"><g><path d="M 4.257812 -8.300781 C 2.226562 -8.300781 0.457031 -6.757812 0.457031 -4.027344 C 0.457031 -1.066406 2.015625 0.214844 4.058594 0.214844 C 5.859375 0.214844 7.203125 -0.703125 7.597656 -2.578125 L 6.226562 -2.578125 C 5.949219 -1.402344 5.203125 -0.792969 4.136719 -0.792969 C 2.929688 -0.792969 1.890625 -1.769531 1.890625 -4.121094 C 1.890625 -6.300781 2.960938 -7.292969 4.226562 -7.292969 C 5.308594 -7.292969 6.011719 -6.667969 6.300781 -5.371094 L 7.675781 -5.371094 C 7.429688 -7.140625 6.195312 -8.300781 4.257812 -8.300781 Z M 4.257812 -8.300781 "/></g></g></g><g fill="#ed155d" fill-opacity="1"><g transform="translate(148.117774, 305.978327)"><g><path d="M 1.785156 -10.742188 C 1.3125 -10.742188 0.945312 -10.375 0.945312 -9.902344 C 0.945312 -9.429688 1.3125 -9.0625 1.785156 -9.0625 C 2.257812 -9.0625 2.625 -9.429688 2.625 -9.902344 C 2.625 -10.375 2.257812 -10.742188 1.785156 -10.742188 Z M 2.441406 0 L 2.441406 -8.085938 L 1.128906 -8.085938 L 1.128906 0 Z M 2.441406 0 "/></g></g></g><g fill="#ed155d" fill-opacity="1"><g transform="translate(158.219664, 305.978327)"><g><path d="M 2.699219 -7.019531 L 4.210938 -7.019531 L 4.210938 -8.027344 L 2.699219 -8.027344 L 2.699219 -9.902344 L 1.386719 -9.902344 L 1.386719 -8.027344 L 0.304688 -8.027344 L 0.304688 -7.019531 L 1.386719 -7.019531 L 1.386719 -2.304688 C 1.386719 -1.847656 1.386719 -1.511719 1.402344 -1.296875 C 1.480469 -0.289062 2 0.121094 3.003906 0.121094 C 3.371094 0.121094 3.738281 0.105469 4.121094 0.046875 L 4.121094 -0.914062 C 3.097656 -0.792969 2.777344 -0.960938 2.714844 -1.738281 C 2.699219 -1.953125 2.699219 -2.089844 2.699219 -2.363281 Z M 2.699219 -7.019531 "/></g></g></g><g fill="#ed155d" fill-opacity="1"><g transform="translate(169.465734, 305.978327)"><g><path d="M 1.785156 -10.742188 C 1.3125 -10.742188 0.945312 -10.375 0.945312 -9.902344 C 0.945312 -9.429688 1.3125 -9.0625 1.785156 -9.0625 C 2.257812 -9.0625 2.625 -9.429688 2.625 -9.902344 C 2.625 -10.375 2.257812 -10.742188 1.785156 -10.742188 Z M 2.441406 0 L 2.441406 -8.085938 L 1.128906 -8.085938 L 1.128906 0 Z M 2.441406 0 "/></g></g></g><g fill="#ed155d" fill-opacity="1"><g transform="translate(179.567624, 305.978327)"><g><path d="M 7.933594 -5.933594 C 7.8125 -7.355469 6.820312 -8.300781 5.050781 -8.300781 C 4.226562 -8.300781 3.632812 -8.164062 2.945312 -7.628906 L 2.441406 -6.699219 L 2.441406 -8.085938 L 1.128906 -8.085938 L 1.128906 0 L 2.441406 0 L 2.441406 -3.554688 C 2.441406 -6.316406 3.507812 -7.261719 4.777344 -7.261719 C 6.027344 -7.261719 6.546875 -6.5625 6.621094 -5.613281 C 6.652344 -5.203125 6.652344 -4.867188 6.652344 -4.457031 L 6.652344 0 L 7.964844 0 L 7.964844 -4.546875 C 7.964844 -5.203125 7.964844 -5.523438 7.933594 -5.933594 Z M 7.933594 -5.933594 "/></g></g></g><g fill="#ed155d" fill-opacity="1"><g transform="translate(195.085309, 305.978327)"><g><path d="M 8.195312 -8.085938 L 6.882812 -8.085938 L 6.882812 -6.972656 L 6.347656 -7.765625 C 5.933594 -8.101562 5.082031 -8.300781 4.410156 -8.300781 C 2.320312 -8.300781 0.457031 -6.910156 0.457031 -3.921875 C 0.457031 -1.554688 1.769531 0.214844 4.136719 0.214844 C 4.957031 0.214844 5.8125 -0.046875 6.269531 -0.425781 L 6.882812 -1.296875 L 6.882812 -1.160156 C 6.882812 -0.914062 6.882812 -0.65625 6.867188 -0.273438 C 6.804688 1.28125 5.933594 2.195312 4.332031 2.195312 C 2.945312 2.195312 2.152344 1.511719 2.042969 0.519531 L 2.03125 0.382812 L 0.703125 0.382812 L 0.71875 0.535156 C 0.886719 2.242188 2.03125 3.203125 4.332031 3.203125 C 6.667969 3.203125 8.101562 1.953125 8.179688 -0.410156 C 8.195312 -0.855469 8.195312 -1.480469 8.195312 -1.984375 Z M 4.332031 -0.792969 C 2.714844 -0.792969 1.890625 -2.242188 1.890625 -4.074219 C 1.890625 -6.195312 2.992188 -7.292969 4.410156 -7.292969 C 5.570312 -7.292969 6.882812 -6.5 6.882812 -4.410156 L 6.882812 -3.96875 C 6.882812 -1.648438 5.675781 -0.792969 4.332031 -0.792969 Z M 4.332031 -0.792969 "/></g></g></g><g fill="#ed155d" fill-opacity="1"><g transform="translate(210.938616, 305.978327)"><g/></g></g><g fill="#ed155d" fill-opacity="1"><g transform="translate(220.704866, 305.978327)"><g><path d="M 4.257812 -8.300781 C 2.226562 -8.300781 0.457031 -6.757812 0.457031 -4.027344 C 0.457031 -1.066406 2.015625 0.214844 4.058594 0.214844 C 5.859375 0.214844 7.203125 -0.703125 7.597656 -2.578125 L 6.226562 -2.578125 C 5.949219 -1.402344 5.203125 -0.792969 4.136719 -0.792969 C 2.929688 -0.792969 1.890625 -1.769531 1.890625 -4.121094 C 1.890625 -6.300781 2.960938 -7.292969 4.226562 -7.292969 C 5.308594 -7.292969 6.011719 -6.667969 6.300781 -5.371094 L 7.675781 -5.371094 C 7.429688 -7.140625 6.195312 -8.300781 4.257812 -8.300781 Z M 4.257812 -8.300781 "/></g></g></g><g fill="#ed155d" fill-opacity="1"><g transform="translate(235.246181, 305.978327)"><g><path d="M 7.933594 -5.933594 C 7.8125 -7.355469 6.820312 -8.300781 5.050781 -8.300781 C 4.226562 -8.300781 3.632812 -8.164062 2.945312 -7.628906 L 2.441406 -6.699219 L 2.441406 -11.289062 L 1.128906 -11.289062 L 1.128906 0 L 2.441406 0 L 2.441406 -3.554688 C 2.441406 -6.316406 3.507812 -7.230469 4.777344 -7.261719 C 6.027344 -7.292969 6.546875 -6.5625 6.621094 -5.613281 C 6.652344 -5.203125 6.652344 -4.867188 6.652344 -4.457031 L 6.652344 0 L 7.964844 0 L 7.964844 -4.546875 C 7.964844 -5.203125 7.964844 -5.523438 7.933594 -5.933594 Z M 7.933594 -5.933594 "/></g></g></g><g fill="#ed155d" fill-opacity="1"><g transform="translate(250.763866, 305.978327)"><g><path d="M 5.765625 0 L 7.078125 0 C 6.957031 -0.898438 6.925781 -1.449219 6.925781 -2.058594 L 6.925781 -5.097656 C 6.925781 -5.445312 6.910156 -5.84375 6.882812 -6.164062 C 6.742188 -7.492188 5.933594 -8.300781 4.011719 -8.300781 C 2.226562 -8.300781 1.023438 -7.308594 0.898438 -5.585938 L 2.273438 -5.585938 C 2.363281 -6.699219 2.914062 -7.292969 4.011719 -7.292969 C 5.097656 -7.292969 5.523438 -6.804688 5.585938 -6.058594 C 5.613281 -5.753906 5.613281 -5.433594 5.613281 -5.082031 L 5.613281 -4.867188 L 5.097656 -4.867188 C 1.921875 -4.867188 0.550781 -3.921875 0.550781 -2.089844 C 0.550781 -0.59375 1.695312 0.214844 3.160156 0.214844 C 3.9375 0.214844 4.636719 0.0898438 5.1875 -0.289062 L 5.628906 -1.160156 Z M 3.601562 -0.792969 C 2.609375 -0.792969 1.984375 -1.21875 1.984375 -2.195312 C 1.984375 -3.585938 3.386719 -4.058594 5.613281 -3.890625 L 5.613281 -3.066406 C 5.613281 -1.601562 4.820312 -0.792969 3.601562 -0.792969 Z M 3.601562 -0.792969 "/></g></g></g><g fill="#ed155d" fill-opacity="1"><g transform="translate(265.335685, 305.978327)"><g><path d="M 2.699219 -7.019531 L 4.210938 -7.019531 L 4.210938 -8.027344 L 2.699219 -8.027344 L 2.699219 -9.902344 L 1.386719 -9.902344 L 1.386719 -8.027344 L 0.304688 -8.027344 L 0.304688 -7.019531 L 1.386719 -7.019531 L 1.386719 -2.304688 C 1.386719 -1.847656 1.386719 -1.511719 1.402344 -1.296875 C 1.480469 -0.289062 2 0.121094 3.003906 0.121094 C 3.371094 0.121094 3.738281 0.105469 4.121094 0.046875 L 4.121094 -0.914062 C 3.097656 -0.792969 2.777344 -0.960938 2.714844 -1.738281 C 2.699219 -1.953125 2.699219 -2.089844 2.699219 -2.363281 Z M 2.699219 -7.019531 "/></g></g></g></svg>